<?xml version="1.0" encoding="utf-8"?>
<!-- Generator: Adobe Illustrator 24.0.2, SVG Export Plug-In . SVG Version: 6.00 Build 0)  -->
<svg version="1.1" id="Capa_1" xmlns="http://www.w3.org/2000/svg" xmlns:xlink="http://www.w3.org/1999/xlink" x="0px" y="0px"
	 viewBox="0 0 84.9 25.3" style="enable-background:new 0 0 84.9 25.3;" xml:space="preserve">
<style type="text/css">
	.st0{fill:#003FA2;}
	.st1{fill:#FFFFFF;}
</style>
<g>
	<path d="M18.6,13.2h1.7c2.6,0,5.2-1.9,5.2-5.4s-2.5-5.4-5.2-5.4h-1.7 M15.4,0h4.3c4.8,0,9,1.6,9,7.8c0,6.2-4.2,7.8-9,7.8h-4.3V0z"
		/>
	<path d="M38.1,8.7C38,7.3,37.4,6,35.7,6C34,6,33.2,7.2,33,8.7 M40.2,15c-1.1,0.6-2.4,0.9-4,0.9c-3.8,0-6-2.2-6-6
		c0-3.3,1.8-6.1,5.4-6.1c4.3,0,5.5,2.9,5.5,7h-8c0.1,1.9,1.4,2.9,3.3,2.9c1.5,0,2.7-0.5,3.8-1.2V15z"/>
	<path d="M53.4,15.6h-2.8v-1.6h0c-0.9,1.1-2.2,1.8-3.8,1.8c-2.7,0-3.9-1.9-3.9-4.5V4.1h3v6.2c0,1.4,0,3.3,1.9,3.3
		c2.2,0,2.6-2.4,2.6-3.8V4.1h3"/>
	<path d="M62.8,6.5C61.9,6.2,61.2,6,60.1,6c-0.8,0-1.8,0.3-1.8,1.3c0,1.8,5.2,0.7,5.2,4.8c0,2.7-2.4,3.8-4.8,3.8
		c-1.1,0-2.3-0.2-3.4-0.5l0.2-2.5c0.9,0.5,1.9,0.8,3,0.8c0.8,0,2-0.3,2-1.4c0-2.3-5.2-0.7-5.2-4.9c0-2.5,2.2-3.6,4.5-3.6
		c1.4,0,2.3,0.2,3.3,0.4"/>
	<path d="M66.4,6.3h-2.2V4.1h2.2V1.8l3-1v3.3h2.7v2.2h-2.7v5.4c0,1,0.3,1.9,1.4,1.9c0.5,0,1.1-0.1,1.4-0.3l0.1,2.4
		c-0.6,0.2-1.3,0.3-2.2,0.3c-2.4,0-3.7-1.5-3.7-3.7"/>
	<path d="M78.9,13.6c2.3,0,2.9-2.1,2.9-4c0-1.8-0.9-3.4-2.9-3.4c-1.9,0-2.9,1.7-2.9,3.4C76,11.5,76.6,13.6,78.9,13.6 M78.9,3.8
		c3.4,0,6,2.3,6,6.1c0,3.3-2.2,6-6,6c-3.8,0-6-2.6-6-6C72.9,6.1,75.5,3.8,78.9,3.8"/>
	<path class="st0" d="M11.6,10.7c0,3.3-2.6,5.9-5.8,5.9c-3.2,0-5.8-2.6-5.8-5.9l0-0.1V0h11.7L11.6,10.7"/>
	<rect x="2.4" y="7.9" class="st1" width="2.1" height="0.3"/>
	<polyline class="st1" points="5.1,7.8 4.7,7.9 4.7,8.2 6.8,8.2 6.8,7.9 6.4,7.8 	"/>
	<polyline class="st1" points="1.1,7.8 0.9,7.9 0.9,8.2 2.2,8.2 2.2,7.9 2,7.8 	"/>
	<polyline class="st1" points="0.8,5.6 0.8,5.8 2.3,5.8 2.3,5.6 1.5,5.4 	"/>
	<path class="st1" d="M5.7,5.6c-0.1,0-0.1-0.1-0.1-0.1c0-0.1,0.1-0.1,0.1-0.1c0.1,0,0.1,0.1,0.1,0.1C5.9,5.6,5.8,5.6,5.7,5.6
		 M5.7,5.3L4.5,5.6v0.2h2.4V5.6L5.7,5.3z"/>
	<polyline class="st1" points="9.8,5.2 9.8,5.4 9.1,5.6 9.1,5.8 10.7,5.8 10.7,5.6 10,5.4 10,5.2 	"/>
	<rect x="6.9" y="7.9" class="st1" width="2.1" height="0.3"/>
	<path class="st1" d="M2,7H1.8V6.8c0,0,0-0.1,0.1-0.1c0,0,0.1,0,0.1,0.1 M2,7.5H1.8V7.4c0,0,0-0.1,0.1-0.1c0,0,0.1,0,0.1,0.1V7.5z
		 M1.8,6.2C1.8,6.1,1.9,6.1,1.8,6.2C2,6.1,2,6.1,2,6.2v0.2H1.8V6.2z M1.6,6.4H1.5V6.2c0,0,0-0.1,0.1-0.1c0,0,0.1,0,0.1,0.1V6.4z
		 M1.6,7H1.5V6.8c0,0,0-0.1,0.1-0.1c0,0,0.1,0,0.1,0.1V7z M1.2,6.4H1.1V6.2c0,0,0-0.1,0.1-0.1c0,0,0.1,0,0.1,0.1V6.4z M1.2,7H1.1
		V6.8c0,0,0-0.1,0.1-0.1c0,0,0.1,0,0.1,0.1V7z M1.2,7.5H1.1V7.4c0,0,0-0.1,0.1-0.1c0,0,0.1,0,0.1,0.1V7.5z M0.9,5.9v1.8l0.2-0.2h0.3
		V7.4c0-0.1,0.1-0.1,0.1-0.1c0.1,0,0.1,0.1,0.1,0.1v0.2H2l0.3,0.2V5.9H0.9z"/>
	<rect x="1.4" y="7.6" class="st1" width="0.2" height="0"/>
	<path class="st1" d="M4.2,6.4H4.1V6.2c0,0,0-0.1,0.1-0.1c0,0,0.1,0,0.1,0.1 M4.2,7H4.1V6.8c0,0,0-0.1,0.1-0.1c0,0,0.1,0,0.1,0.1V7z
		 M4.2,7.6H4.1V7.4c0,0,0-0.1,0.1-0.1c0,0,0.1,0,0.1,0.1V7.6z M3.8,7.6H3.6l0-0.3c0,0,0-0.1,0.1-0.1c0,0,0.1,0,0.1,0.1V7.6z
		 M3.6,6.8C3.6,6.7,3.6,6.7,3.6,6.8c0.1-0.1,0.2,0,0.2,0V7H3.6V6.8z M3.3,6.4H3.1l0-0.2c0,0,0-0.1,0.1-0.1c0,0,0.1,0,0.1,0.1
		L3.3,6.4z M3.3,7H3.1V6.8c0,0,0-0.1,0.1-0.1c0,0,0.1,0,0.1,0.1L3.3,7z M3.3,7.6H3.1V7.4c0,0,0-0.1,0.1-0.1c0,0,0.1,0,0.1,0.1V7.6z
		 M2.8,7.6H2.7V7.4c0,0,0-0.1,0.1-0.1c0,0,0.1,0,0.1,0.1V7.6z M2.7,6.8C2.7,6.7,2.7,6.7,2.7,6.8c0.1-0.1,0.2,0,0.2,0V7H2.7V6.8z
		 M2.7,6.2C2.7,6.1,2.7,6.1,2.7,6.2c0.1-0.1,0.2,0,0.2,0v0.2H2.7V6.2z M3.6,6.2C3.6,6.1,3.6,6.1,3.6,6.2c0.1-0.1,0.2,0,0.2,0v0.2
		H3.6V6.2z M2.4,7.8h2.1V5.9H2.4V7.8z"/>
	<path class="st1" d="M6.5,6.4H6.3V6.2c0,0,0-0.1,0.1-0.1c0,0,0.1,0,0.1,0.1 M6.5,7H6.3V6.8c0,0,0-0.1,0.1-0.1c0,0,0.1,0,0.1,0.1V7z
		 M6,6.4H5.9V6.2c0,0,0-0.1,0.1-0.1c0,0,0.1,0,0.1,0.1V6.4z M6,7H5.9V6.8c0,0,0-0.1,0.1-0.1c0,0,0.1,0,0.1,0.1V7z M5.6,6.4H5.4V6.2
		c0,0,0-0.1,0.1-0.1c0,0,0.1,0,0.1,0.1V6.4z M5.6,7H5.4V6.8c0,0,0-0.1,0.1-0.1c0,0,0.1,0,0.1,0.1V7z M5.1,6.4H5V6.2
		c0,0,0-0.1,0.1-0.1c0,0,0.1,0,0.1,0.1V6.4z M5.1,7H5l0-0.2c0,0,0-0.1,0.1-0.1c0,0,0.1,0,0.1,0.1V7z M4.7,5.9v1.8l0.4-0.2V7.4
		c0-0.1,0.1-0.1,0.1-0.1c0.1,0,0.1,0.1,0.1,0.1v0.2h0.3V7.4c0-0.1,0.1-0.1,0.1-0.1c0.1,0,0.1,0.1,0.1,0.1v0.2h0.3V7.4
		c0-0.1,0.1-0.1,0.1-0.1c0.1,0,0.1,0.1,0.1,0.1v0.2l0.4,0.2V5.9H4.7z"/>
	<rect x="6.1" y="7.6" class="st1" width="0.2" height="0"/>
	<rect x="5.6" y="7.6" class="st1" width="0.2" height="0"/>
	<rect x="5.1" y="7.6" class="st1" width="0.2" height="0"/>
	<rect x="6.9" y="7.9" class="st1" width="2.1" height="0.3"/>
	<path class="st1" d="M8.8,7.6H8.6V7.4c0,0,0-0.1,0.1-0.1c0,0,0.1,0,0.1,0.1 M8.3,7.6H8.1V7.4c0,0,0-0.1,0.1-0.1c0,0,0.1,0,0.1,0.1
		V7.6z M8.1,6.8C8.1,6.7,8.2,6.7,8.1,6.8c0.1-0.1,0.2,0,0.2,0V7H8.1V6.8z M7.8,7.6H7.7l0-0.3c0,0,0-0.1,0.1-0.1c0,0,0.1,0,0.1,0.1
		V7.6z M7.7,6.8C7.7,6.7,7.7,6.7,7.7,6.8c0.1-0.1,0.2,0,0.2,0V7H7.7V6.8z M7.4,7.6H7.2V7.4c0,0,0-0.1,0.1-0.1s0.1,0,0.1,0.1V7.6z
		 M7.2,6.8C7.2,6.7,7.3,6.7,7.2,6.8c0.1-0.1,0.2,0,0.2,0V7H7.2L7.2,6.8z M7.2,6.2C7.2,6.1,7.3,6.1,7.2,6.2c0.1-0.1,0.2,0,0.2,0v0.2
		H7.2L7.2,6.2z M7.7,6.2C7.7,6.1,7.7,6.1,7.7,6.2c0.1-0.1,0.2,0,0.2,0v0.2H7.7V6.2z M8.1,6.2C8.1,6.1,8.2,6.1,8.1,6.2
		c0.1-0.1,0.2,0,0.2,0v0.2H8.1V6.2z M8.6,6.8C8.6,6.7,8.6,6.7,8.6,6.8c0.1-0.1,0.2,0,0.2,0V7H8.6V6.8z M8.6,6.2
		C8.6,6.1,8.6,6.1,8.6,6.2c0.1-0.1,0.2,0,0.2,0v0.2H8.6V6.2z M6.9,7.8h2.1V5.9H6.9V7.8z"/>
	<polyline class="st1" points="9.5,7.8 9.2,7.9 9.2,8.2 10.6,8.2 10.6,7.9 10.3,7.8 	"/>
	<path class="st1" d="M10.4,7h-0.2V6.8c0,0,0-0.1,0.1-0.1c0,0,0.1,0,0.1,0.1 M10.4,7.5h-0.2V7.4c0,0,0-0.1,0.1-0.1
		c0,0,0.1,0,0.1,0.1V7.5z M10.2,6.2C10.2,6.1,10.2,6.1,10.2,6.2c0.1-0.1,0.2,0,0.2,0v0.2h-0.2V6.2z M10,6.4H9.8V6.2
		c0,0,0-0.1,0.1-0.1c0,0,0.1,0,0.1,0.1V6.4z M10,7H9.8V6.8c0,0,0-0.1,0.1-0.1c0,0,0.1,0,0.1,0.1V7z M9.6,6.4H9.4l0-0.2
		c0,0,0-0.1,0.1-0.1c0,0,0.1,0,0.1,0.1L9.6,6.4z M9.6,7H9.4l0-0.2c0,0,0-0.1,0.1-0.1c0,0,0.1,0,0.1,0.1L9.6,7z M9.6,7.5H9.4l0-0.2
		c0,0,0-0.1,0.1-0.1c0,0,0.1,0,0.1,0.1L9.6,7.5z M9.2,5.9v1.8l0.2-0.2h0.3V7.4c0-0.1,0.1-0.1,0.1-0.1C10,7.3,10,7.3,10,7.4v0.2h0.3
		l0.2,0.2V5.9H9.2z"/>
	<rect x="9.8" y="7.6" class="st1" width="0.2" height="0"/>
	<path class="st1" d="M5.6,3.5V1.2h0C5.6,1,5.4,1,5.4,1H3.9v2.4h1.5C5.4,3.3,5.6,3.3,5.6,3.5"/>
	<path class="st1" d="M6,3.3h1.5V1H6c0,0-0.2,0-0.2,0.2v2.4C5.8,3.3,6,3.3,6,3.3"/>
	<path class="st1" d="M7.8,1.3v2.3L6,3.6l0,0c0,0.1-0.1,0.1-0.2,0.1c-0.1,0-0.2-0.1-0.2-0.1l0,0l-1.8,0V3.2V1.3H3.5v1.9l0,0.4v0.2
		h1.8h0C5.4,3.9,5.6,4,5.7,4h0C5.9,4,6,3.9,6.1,3.8H8V1.3"/>
	<path class="st1" d="M8.6,9.6c0.3-0.2,0.6-0.2,1-0.2c0.4,0,0.7,0.1,1,0.2l0-0.7c-0.3-0.1-0.6-0.2-1-0.2c-0.3,0-0.7,0.1-1,0.2
		C8.3,9.1,8,9.1,7.7,9.1c-0.4,0-0.7-0.1-1-0.2c-0.3-0.1-0.6-0.2-1-0.2c-0.4,0-0.7,0.1-1,0.2c-0.3,0.1-0.6,0.2-1,0.2
		c-0.3,0-0.7-0.1-1-0.2c-0.3-0.1-0.6-0.2-1-0.2c-0.4,0-0.7,0.1-1,0.2l0,0.7c0.3-0.2,0.6-0.2,1-0.2c0.3,0,0.7,0.1,1,0.2
		c0.3,0.1,0.6,0.2,1,0.2c0.3,0,0.7-0.1,1-0.2c0.3-0.2,0.6-0.2,1-0.2c0.4,0,0.7,0.1,1,0.2c0.3,0.1,0.6,0.2,1,0.2
		C8,9.8,8.4,9.8,8.6,9.6"/>
	<path class="st1" d="M8.6,10.9c0.3-0.2,0.6-0.2,1-0.2c0.3,0,0.7,0.1,1,0.2l0-0.7C10.3,10,10,10,9.6,10c-0.3,0-0.7,0.1-1,0.2
		c-0.3,0.1-0.6,0.2-1,0.2s-0.7-0.1-1-0.2C6.4,10,6.1,10,5.7,10c-0.4,0-0.7,0.1-1,0.2c-0.3,0.1-0.6,0.2-1,0.2c-0.4,0-0.7-0.1-1-0.2
		C2.5,10,2.2,10,1.8,10c-0.4,0-0.7,0.1-1,0.2l0,0.7c0.3-0.2,0.6-0.2,1-0.2c0.3,0,0.7,0.1,1,0.2c0.3,0.2,0.6,0.2,1,0.2
		c0.3,0,0.7-0.1,1-0.2c0.3-0.2,0.6-0.2,1-0.2c0.3,0,0.7,0.1,1,0.2c0.3,0.2,0.6,0.2,1,0.2C8,11.1,8.4,11.1,8.6,10.9"/>
	<path class="st1" d="M8.6,12.2c0.3-0.1,0.6-0.2,1-0.2c0.3,0,0.7,0.1,1,0.2l0-0.7c-0.3-0.1-0.6-0.2-1-0.2c-0.3,0-0.7,0.1-1,0.2
		c-0.3,0.2-0.6,0.2-1,0.2s-0.7-0.1-1-0.2c-0.3-0.1-0.6-0.2-1-0.2c-0.4,0-0.7,0.1-1,0.2c-0.3,0.2-0.6,0.2-1,0.2c-0.4,0-0.7-0.1-1-0.2
		c-0.3-0.1-0.6-0.2-1-0.2c-0.4,0-0.7,0.1-1,0.2l0,0.7c0.3-0.1,0.6-0.2,1-0.2c0.3,0,0.7,0.1,1,0.2c0.3,0.1,0.6,0.2,1,0.2
		c0.3,0,0.7-0.1,1-0.2C5,12.1,5.4,12,5.7,12c0.3,0,0.7,0.1,1,0.2c0.3,0.1,0.6,0.2,1,0.2C8,12.4,8.4,12.3,8.6,12.2"/>
	<path d="M19,23.6c0,1.4-1,1.7-1.7,1.7c-0.7,0-1.7-0.3-1.7-1.7v-3.1H16v3.1c0,0.8,0.4,1.3,1.2,1.3c0.8,0,1.2-0.6,1.2-1.3v-3.1H19"/>
	<path d="M20,22.6c0-0.3,0-0.5,0-0.8h0.4v0.6h0c0.1-0.3,0.4-0.7,1.1-0.7c0.9,0,1.2,0.6,1.2,1.3v2.2h-0.4v-2.1c0-0.7-0.2-1.1-0.8-1.1
		c-0.8,0-1,0.7-1,1.3v1.9H20"/>
	<path d="M24.3,20.9h-0.4v-0.6h0.4V20.9z M23.8,21.8h0.4v3.5h-0.4V21.8z"/>
	<polyline points="26.5,25.2 26,25.2 24.9,21.8 25.3,21.8 26.3,24.8 26.3,24.8 27.3,21.8 27.7,21.8 	"/>
	<path d="M30.7,25.1c-0.3,0.1-0.7,0.2-1,0.2c-1.1,0-1.6-0.8-1.6-1.8c0-1.1,0.6-1.8,1.5-1.8c1,0,1.4,0.8,1.4,1.7v0.2h-2.4
		c0,0.7,0.4,1.3,1.1,1.3c0.3,0,0.8-0.1,1-0.3 M30.5,23.3c0-0.6-0.2-1.2-0.9-1.2c-0.6,0-1,0.6-1,1.2H30.5z"/>
	<path d="M31.7,22.6c0-0.4,0-0.5,0-0.8h0.4v0.7h0c0.2-0.4,0.4-0.7,0.9-0.7c0.1,0,0.2,0,0.3,0v0.4c-0.1,0-0.2,0-0.3,0
		c-0.7,0-0.9,0.8-0.9,1.4v1.7h-0.4"/>
	<path d="M33.7,24.7c0.3,0.1,0.6,0.2,0.9,0.2c0.4,0,0.8-0.2,0.8-0.6c0-0.8-1.7-0.7-1.7-1.7c0-0.7,0.6-0.9,1.1-0.9
		c0.2,0,0.5,0,0.9,0.2l0,0.4c-0.2-0.1-0.5-0.2-0.8-0.2c-0.4,0-0.7,0.1-0.7,0.6c0,0.6,1.7,0.6,1.7,1.7c0,0.7-0.7,1-1.2,1
		c-0.3,0-0.7,0-1-0.2"/>
	<path d="M37.1,20.9h-0.4v-0.6h0.4V20.9z M36.6,21.8h0.4v3.5h-0.4V21.8z"/>
	<path d="M40.9,25.2h-0.4v-0.5h0c-0.2,0.4-0.6,0.6-1.1,0.6c-1,0-1.4-0.8-1.4-1.8c0-1.1,0.4-1.8,1.4-1.8c0.7,0,1,0.5,1.1,0.7h0v-2.2
		h0.4 M39.4,25c0.8,0,1-0.8,1-1.4c0-0.6-0.3-1.4-1-1.4c-0.8,0-1,0.8-1,1.4C38.4,24.2,38.6,25,39.4,25"/>
	<path d="M43.9,24.7L43.9,24.7c-0.2,0.4-0.7,0.6-1.1,0.6c-1,0-1.1-0.7-1.1-1c0-1.2,1.2-1.2,2.1-1.2h0.1V23c0-0.6-0.2-0.9-0.8-0.9
		c-0.4,0-0.7,0.1-1,0.3v-0.4c0.3-0.1,0.7-0.2,1-0.2c0.9,0,1.2,0.4,1.2,1.3v1.5c0,0.3,0,0.5,0,0.7h-0.4 M43.9,23.5h-0.1
		c-0.7,0-1.6,0.1-1.6,0.8c0,0.5,0.3,0.6,0.7,0.6c1,0,1-0.9,1-1.2V23.5z"/>
	<path d="M48.1,25.2h-0.4v-0.5h0c-0.2,0.4-0.6,0.6-1.1,0.6c-0.9,0-1.4-0.8-1.4-1.8c0-1.1,0.4-1.8,1.4-1.8c0.7,0,1,0.5,1.1,0.7h0
		v-2.2h0.4 M46.6,25c0.8,0,1-0.8,1-1.4c0-0.6-0.3-1.4-1-1.4c-0.8,0-1,0.8-1,1.4C45.6,24.2,45.8,25,46.6,25"/>
	<path d="M53.7,25.2h-0.4v-0.5h0c-0.2,0.4-0.6,0.6-1.1,0.6c-1,0-1.4-0.8-1.4-1.8c0-1.1,0.4-1.8,1.4-1.8c0.7,0,1,0.5,1.1,0.7h0v-2.2
		h0.4 M52.3,25c0.8,0,1-0.8,1-1.4c0-0.6-0.3-1.4-1-1.4c-0.8,0-1,0.8-1,1.4C51.2,24.2,51.4,25,52.3,25"/>
	<path d="M57.1,25.1c-0.3,0.1-0.7,0.2-1,0.2c-1.1,0-1.6-0.8-1.6-1.8c0-1.1,0.6-1.8,1.5-1.8c1,0,1.4,0.8,1.4,1.7v0.2H55
		c0,0.7,0.4,1.3,1.1,1.3c0.3,0,0.8-0.1,1-0.3 M56.9,23.3c0-0.6-0.2-1.2-0.9-1.2c-0.6,0-1,0.6-1,1.2H56.9z"/>
	<path d="M60,20.5h1.2c1.7,0,2.4,1,2.4,2.4c0,1.7-1.1,2.4-2.7,2.4H60 M60.5,24.8h0.4c1.3,0,2.2-0.5,2.2-2c0-1.4-0.9-1.9-1.9-1.9
		h-0.7V24.8z"/>
	<path d="M66.9,25.1c-0.3,0.1-0.7,0.2-1,0.2c-1.1,0-1.6-0.8-1.6-1.8c0-1.1,0.6-1.8,1.5-1.8c1,0,1.4,0.8,1.4,1.7v0.2h-2.4
		c0,0.7,0.4,1.3,1.1,1.3c0.3,0,0.8-0.1,1-0.3 M66.7,23.3c0-0.6-0.2-1.2-0.9-1.2c-0.6,0-1,0.6-1,1.2H66.7z"/>
	<path d="M70.6,24.4c0,0.3,0,0.5,0,0.8h-0.4v-0.6h0c-0.1,0.3-0.4,0.7-1.1,0.7c-0.9,0-1.2-0.6-1.2-1.3v-2.2h0.4v2.1
		c0,0.7,0.2,1.1,0.8,1.1c0.8,0,1-0.7,1-1.3v-1.9h0.4"/>
	<path d="M71.5,24.7c0.3,0.1,0.6,0.2,0.9,0.2c0.4,0,0.8-0.2,0.8-0.6c0-0.8-1.7-0.7-1.7-1.7c0-0.7,0.6-0.9,1.1-0.9
		c0.2,0,0.5,0,0.9,0.2l0,0.4c-0.2-0.1-0.5-0.2-0.8-0.2c-0.4,0-0.7,0.1-0.7,0.6c0,0.6,1.7,0.6,1.7,1.7c0,0.7-0.7,1-1.2,1
		c-0.3,0-0.7,0-1-0.2"/>
	<path d="M75.8,22.2h-0.8v2.2c0,0.3,0.1,0.6,0.5,0.6c0.2,0,0.3,0,0.4-0.1l0,0.4c-0.1,0-0.3,0.1-0.5,0.1c-0.8,0-0.8-0.5-0.8-1.2v-2
		H74v-0.4h0.7V21l0.4-0.1v1h0.8"/>
	<path d="M78,21.7c1.1,0,1.6,0.9,1.6,1.8c0,0.9-0.5,1.8-1.6,1.8c-1.1,0-1.6-0.9-1.6-1.8C76.4,22.6,76.8,21.7,78,21.7 M78,25
		c0.7,0,1.1-0.6,1.1-1.4s-0.4-1.4-1.1-1.4c-0.7,0-1.1,0.6-1.1,1.4S77.2,25,78,25"/>
</g>
</svg>
